<svg width="1100" viewBox="0 0 1100 960" xmlns="http://www.w3.org/2000/svg" font-family="'Segoe UI', Arial, sans-serif">

  <!-- TITLE -->
  <text x="550" y="28" text-anchor="middle" font-size="16" font-weight="600" fill="#1a1a2e">Telco Churn Prediction — System Architecture</text>

  <!-- LAYER 1 — DATA LAYER (blue) -->
  <rect x="10" y="42" width="1080" height="108" rx="8" fill="#0d1b4b" opacity="0.93"/>
  <text x="18" y="58" font-size="10" font-weight="700" fill="#7eb3f7" letter-spacing="1.5">DATA LAYER</text>
  <text x="16" y="100" font-size="9" font-weight="600" fill="#4a90d9" transform="rotate(-90,16,100)" text-anchor="middle">DATA</text>

  <rect x="30" y="64" width="172" height="74" rx="6" fill="#1a3a7a" stroke="#4a7fd4" stroke-width="0.8"/>
  <text x="116" y="88" text-anchor="middle" font-size="12" font-weight="600" fill="#e8f0fe">Telco CSV Dataset</text>
  <text x="116" y="104" text-anchor="middle" font-size="10" fill="#93b8f7">7,043 customers · 21 cols</text>
  <text x="116" y="118" text-anchor="middle" font-size="10" fill="#93b8f7">26.5% churn rate</text>

  <rect x="218" y="64" width="172" height="74" rx="6" fill="#1a3a7a" stroke="#4a7fd4" stroke-width="0.8"/>
  <text x="304" y="88" text-anchor="middle" font-size="12" font-weight="600" fill="#e8f0fe">Data Validation</text>
  <text x="304" y="104" text-anchor="middle" font-size="10" fill="#93b8f7">validate_input_data()</text>
  <text x="304" y="118" text-anchor="middle" font-size="10" fill="#93b8f7">nulls · dupes · types</text>

  <rect x="406" y="64" width="190" height="74" rx="6" fill="#1a3a7a" stroke="#4a7fd4" stroke-width="0.8"/>
  <text x="501" y="88" text-anchor="middle" font-size="12" font-weight="600" fill="#e8f0fe">Feature Engineering</text>
  <text x="501" y="104" text-anchor="middle" font-size="10" fill="#93b8f7">17 features · charge ratios</text>
  <text x="501" y="118" text-anchor="middle" font-size="10" fill="#93b8f7">tenure cohorts · svc flags</text>

  <rect x="612" y="64" width="172" height="74" rx="6" fill="#1a3a7a" stroke="#4a7fd4" stroke-width="0.8"/>
  <text x="698" y="88" text-anchor="middle" font-size="12" font-weight="600" fill="#e8f0fe">Leakage Check</text>
  <text x="698" y="104" text-anchor="middle" font-size="10" fill="#93b8f7">detect_leakage()</text>
  <text x="698" y="118" text-anchor="middle" font-size="10" fill="#93b8f7">corr + exact match</text>

  <rect x="800" y="64" width="270" height="74" rx="6" fill="#1a3a7a" stroke="#4a7fd4" stroke-width="0.8"/>
  <text x="935" y="88" text-anchor="middle" font-size="12" font-weight="600" fill="#e8f0fe">Train / Cal / Test Split</text>
  <text x="935" y="104" text-anchor="middle" font-size="10" fill="#93b8f7">stratify=y · 64/16/20</text>
  <text x="935" y="118" text-anchor="middle" font-size="10" fill="#93b8f7">4492 train · 1124 cal · 1405 test</text>

  <line x1="202" y1="101" x2="216" y2="101" stroke="#4a7fd4" stroke-width="1.2" marker-end="url(#arr)"/>
  <line x1="390" y1="101" x2="404" y2="101" stroke="#4a7fd4" stroke-width="1.2" marker-end="url(#arr)"/>
  <line x1="596" y1="101" x2="610" y2="101" stroke="#4a7fd4" stroke-width="1.2" marker-end="url(#arr)"/>
  <line x1="784" y1="101" x2="798" y2="101" stroke="#4a7fd4" stroke-width="1.2" marker-end="url(#arr)"/>

  <!-- LAYER 2 — TRAINING PIPELINE (purple) -->
  <rect x="10" y="168" width="1080" height="196" rx="8" fill="#1e0a3c" opacity="0.95"/>
  <text x="18" y="184" font-size="10" font-weight="700" fill="#c49ef7" letter-spacing="1.5">TRAINING PIPELINE</text>
  <text x="16" y="270" font-size="9" font-weight="600" fill="#9b6de0" transform="rotate(-90,16,270)" text-anchor="middle">TRAINING</text>

  <rect x="28" y="190" width="158" height="68" rx="6" fill="#2d1060" stroke="#8b5cf6" stroke-width="0.8"/>
  <text x="107" y="211" text-anchor="middle" font-size="11" font-weight="600" fill="#e9d5ff">Dual Preprocessor</text>
  <text x="107" y="226" text-anchor="middle" font-size="10" fill="#c4b5fd">Clipper+Power+Scaler</text>
  <text x="107" y="240" text-anchor="middle" font-size="9" fill="#a78bfa">clone() fix applied</text>

  <rect x="200" y="190" width="158" height="68" rx="6" fill="#2d1060" stroke="#8b5cf6" stroke-width="0.8"/>
  <text x="279" y="211" text-anchor="middle" font-size="11" font-weight="600" fill="#e9d5ff">SMOTENC Sampling</text>
  <text x="279" y="226" text-anchor="middle" font-size="10" fill="#c4b5fd">mixed feature types</text>
  <text x="279" y="240" text-anchor="middle" font-size="10" fill="#c4b5fd">ratio 2.78 imbalance</text>

  <rect x="372" y="190" width="158" height="68" rx="6" fill="#2d1060" stroke="#8b5cf6" stroke-width="0.8"/>
  <text x="451" y="211" text-anchor="middle" font-size="11" font-weight="600" fill="#e9d5ff">13 Models Tuned</text>
  <text x="451" y="226" text-anchor="middle" font-size="10" fill="#c4b5fd">RandomizedSearchCV</text>
  <text x="451" y="240" text-anchor="middle" font-size="10" fill="#c4b5fd">F1 scoring · CV=5</text>

  <rect x="544" y="190" width="158" height="68" rx="6" fill="#2d1060" stroke="#8b5cf6" stroke-width="0.8"/>
  <text x="623" y="211" text-anchor="middle" font-size="11" font-weight="600" fill="#e9d5ff">SelectKBest</text>
  <text x="623" y="226" text-anchor="middle" font-size="10" fill="#c4b5fd">mutual_info_classif</text>
  <text x="623" y="240" text-anchor="middle" font-size="10" fill="#c4b5fd">k=15 features</text>

  <rect x="716" y="190" width="158" height="68" rx="6" fill="#2d1060" stroke="#8b5cf6" stroke-width="0.8"/>
  <text x="795" y="211" text-anchor="middle" font-size="11" font-weight="600" fill="#e9d5ff">Prob Calibration</text>
  <text x="795" y="226" text-anchor="middle" font-size="10" fill="#c4b5fd">holdout isotonic</text>
  <text x="795" y="240" text-anchor="middle" font-size="10" fill="#c4b5fd">thr: 0.5162 → 0.2593</text>

  <line x1="186" y1="224" x2="198" y2="224" stroke="#8b5cf6" stroke-width="1.2" marker-end="url(#arr2)"/>
  <line x1="358" y1="224" x2="370" y2="224" stroke="#8b5cf6" stroke-width="1.2" marker-end="url(#arr2)"/>
  <line x1="530" y1="224" x2="542" y2="224" stroke="#8b5cf6" stroke-width="1.2" marker-end="url(#arr2)"/>
  <line x1="702" y1="224" x2="714" y2="224" stroke="#8b5cf6" stroke-width="1.2" marker-end="url(#arr2)"/>

  <rect x="28" y="278" width="158" height="68" rx="6" fill="#2d1060" stroke="#8b5cf6" stroke-width="0.8"/>
  <text x="107" y="299" text-anchor="middle" font-size="11" font-weight="600" fill="#e9d5ff">Threshold Tuning</text>
  <text x="107" y="314" text-anchor="middle" font-size="10" fill="#c4b5fd">tune_threshold()</text>
  <text x="107" y="328" text-anchor="middle" font-size="10" fill="#c4b5fd">recall target ≥ 0.75</text>

  <rect x="200" y="278" width="158" height="68" rx="6" fill="#2d1060" stroke="#8b5cf6" stroke-width="0.8"/>
  <text x="279" y="299" text-anchor="middle" font-size="11" font-weight="600" fill="#e9d5ff">Revenue Impact</text>
  <text x="279" y="314" text-anchor="middle" font-size="10" fill="#c4b5fd">LTV loss · ROI · FP cost</text>
  <text x="279" y="328" text-anchor="middle" font-size="10" fill="#c4b5fd">Retention ROI = 1.05x</text>

  <rect x="372" y="278" width="158" height="68" rx="6" fill="#2d1060" stroke="#8b5cf6" stroke-width="0.8"/>
  <text x="451" y="299" text-anchor="middle" font-size="11" font-weight="600" fill="#e9d5ff">SHAP + Feature Imp</text>
  <text x="451" y="314" text-anchor="middle" font-size="10" fill="#c4b5fd">TreeExplainer</text>
  <text x="451" y="328" text-anchor="middle" font-size="10" fill="#c4b5fd">top: ord__Contract</text>

  <rect x="544" y="278" width="158" height="68" rx="6" fill="#2d1060" stroke="#8b5cf6" stroke-width="0.8"/>
  <text x="623" y="299" text-anchor="middle" font-size="11" font-weight="600" fill="#e9d5ff">PSI Drift Report</text>
  <text x="623" y="314" text-anchor="middle" font-size="10" fill="#c4b5fd">edge-based PSI</text>
  <text x="623" y="328" text-anchor="middle" font-size="9" fill="#a78bfa">FIXED (not rank-based)</text>

  <rect x="716" y="278" width="158" height="68" rx="6" fill="#2d1060" stroke="#8b5cf6" stroke-width="0.8"/>
  <text x="795" y="299" text-anchor="middle" font-size="11" font-weight="600" fill="#e9d5ff">MLflow + Model Card</text>
  <text x="795" y="314" text-anchor="middle" font-size="10" fill="#c4b5fd">experiment tracking</text>
  <text x="795" y="328" text-anchor="middle" font-size="9" fill="#a78bfa">card_path in registry</text>

  <rect x="888" y="278" width="148" height="68" rx="6" fill="#1a0845" stroke="#7c3aed" stroke-width="1.2"/>
  <text x="962" y="299" text-anchor="middle" font-size="11" font-weight="600" fill="#e9d5ff">41 Pytest Tests</text>
  <text x="962" y="314" text-anchor="middle" font-size="10" fill="#c4b5fd">Clipper·PSI·Metrics</text>
  <text x="962" y="328" text-anchor="middle" font-size="10" fill="#c4b5fd">Gates·Preprocessor·KS</text>

  <!-- LAYER 3 — MODEL OPS (green/teal) -->
  <rect x="10" y="382" width="1080" height="148" rx="8" fill="#042b1e" opacity="0.96"/>
  <text x="18" y="398" font-size="10" font-weight="700" fill="#6ee7b7" letter-spacing="1.5">MODEL OPS — CHAMPION vs CHALLENGER</text>
  <text x="16" y="460" font-size="9" font-weight="600" fill="#10b981" transform="rotate(-90,16,460)" text-anchor="middle">MODEL OPS</text>

  <rect x="28" y="406" width="200" height="108" rx="6" fill="#064e35" stroke="#10b981" stroke-width="1.5"/>
  <text x="128" y="428" text-anchor="middle" font-size="13" font-weight="700" fill="#6ee7b7">CHAMPION</text>
  <text x="128" y="446" text-anchor="middle" font-size="11" fill="#34d399">CatBoost F1=0.634</text>
  <text x="128" y="462" text-anchor="middle" font-size="11" fill="#34d399">ROC-AUC=0.8388</text>
  <text x="128" y="478" text-anchor="middle" font-size="11" fill="#34d399">Recall=0.7312</text>
  <text x="128" y="494" text-anchor="middle" font-size="10" fill="#6ee7b7">latest_model.json</text>

  <text x="280" y="465" text-anchor="middle" font-size="22" font-weight="700" fill="#6ee7b7">VS</text>

  <rect x="308" y="406" width="200" height="108" rx="6" fill="#042b1e" stroke="#6ee7b7" stroke-width="1" stroke-dasharray="5,3"/>
  <text x="408" y="428" text-anchor="middle" font-size="13" font-weight="700" fill="#a7f3d0">CHALLENGER</text>
  <text x="408" y="448" text-anchor="middle" font-size="11" fill="#6ee7b7">New training run</text>
  <text x="408" y="466" text-anchor="middle" font-size="11" fill="#6ee7b7">Must beat 4 gates</text>
  <text x="408" y="484" text-anchor="middle" font-size="11" fill="#6ee7b7">challenger_log.json</text>

  <rect x="534" y="406" width="148" height="46" rx="6" fill="#065f46" stroke="#10b981" stroke-width="0.8"/>
  <text x="608" y="424" text-anchor="middle" font-size="11" font-weight="600" fill="#a7f3d0">Gate 1: F1</text>
  <text x="608" y="442" text-anchor="middle" font-size="10" fill="#6ee7b7">improvement ≥ 0.005</text>

  <rect x="534" y="460" width="148" height="46" rx="6" fill="#065f46" stroke="#10b981" stroke-width="0.8"/>
  <text x="608" y="478" text-anchor="middle" font-size="11" font-weight="600" fill="#a7f3d0">Gate 2: ROC-AUC</text>
  <text x="608" y="496" text-anchor="middle" font-size="10" fill="#6ee7b7">≥ 0.80</text>

  <rect x="700" y="406" width="148" height="46" rx="6" fill="#065f46" stroke="#10b981" stroke-width="0.8"/>
  <text x="774" y="424" text-anchor="middle" font-size="11" font-weight="600" fill="#a7f3d0">Gate 3: Recall</text>
  <text x="774" y="442" text-anchor="middle" font-size="10" fill="#6ee7b7">≥ 0.70 (churn-specific)</text>

  <rect x="700" y="460" width="148" height="46" rx="6" fill="#047857" stroke="#34d399" stroke-width="1.2"/>
  <text x="774" y="478" text-anchor="middle" font-size="11" font-weight="700" fill="#ecfdf5">Gate 4: Gap ≤ 10%</text>
  <text x="774" y="494" text-anchor="middle" font-size="10" fill="#a7f3d0">PROMOTED if all pass</text>

  <rect x="866" y="406" width="200" height="108" rx="6" fill="#064e35" stroke="#34d399" stroke-width="0.8"/>
  <text x="966" y="428" text-anchor="middle" font-size="11" font-weight="700" fill="#6ee7b7">FIXES APPLIED</text>
  <text x="966" y="446" text-anchor="middle" font-size="10" fill="#a7f3d0">card_path in registry</text>
  <text x="966" y="462" text-anchor="middle" font-size="10" fill="#a7f3d0">No string parsing</text>
  <text x="966" y="478" text-anchor="middle" font-size="10" fill="#a7f3d0">Pre-loaded snapshot</text>
  <text x="966" y="494" text-anchor="middle" font-size="10" fill="#a7f3d0">F1 diff bug fixed</text>

  <!-- LAYER 4 — SERVING LAYER (amber) -->
  <rect x="10" y="548" width="1080" height="128" rx="8" fill="#2d1500" opacity="0.96"/>
  <text x="18" y="564" font-size="10" font-weight="700" fill="#fbbf24" letter-spacing="1.5">SERVING LAYER</text>
  <text x="16" y="616" font-size="9" font-weight="600" fill="#d97706" transform="rotate(-90,16,616)" text-anchor="middle">SERVING</text>

  <rect x="28" y="572" width="158" height="88" rx="6" fill="#451a00" stroke="#f59e0b" stroke-width="0.8"/>
  <text x="107" y="594" text-anchor="middle" font-size="11" font-weight="600" fill="#fde68a">Model Loader</text>
  <text x="107" y="610" text-anchor="middle" font-size="10" fill="#fbbf24">load_latest_model()</text>
  <text x="107" y="625" text-anchor="middle" font-size="10" fill="#fbbf24">threshold=0.2593</text>
  <text x="107" y="640" text-anchor="middle" font-size="10" fill="#fbbf24">joblib.load()</text>

  <rect x="200" y="572" width="158" height="88" rx="6" fill="#451a00" stroke="#f59e0b" stroke-width="0.8"/>
  <text x="279" y="594" text-anchor="middle" font-size="11" font-weight="600" fill="#fde68a">Prediction Service</text>
  <text x="279" y="610" text-anchor="middle" font-size="10" fill="#fbbf24">prepare_features()</text>
  <text x="279" y="625" text-anchor="middle" font-size="10" fill="#fbbf24">predict_proba()</text>
  <text x="279" y="640" text-anchor="middle" font-size="10" fill="#fbbf24">score_customer()</text>

  <rect x="372" y="572" width="185" height="88" rx="6" fill="#451a00" stroke="#f59e0b" stroke-width="0.8"/>
  <text x="464" y="594" text-anchor="middle" font-size="11" font-weight="600" fill="#fde68a">3-Tier Churn Engine</text>
  <text x="464" y="610" text-anchor="middle" font-size="10" fill="#fbbf24">RETAIN · OUTREACH · URGENT</text>
  <text x="464" y="625" text-anchor="middle" font-size="10" fill="#fbbf24">hard rules before ML</text>
  <text x="464" y="640" text-anchor="middle" font-size="10" fill="#fbbf24">NoContract+NoAutopay</text>

  <rect x="571" y="572" width="158" height="88" rx="6" fill="#451a00" stroke="#f59e0b" stroke-width="0.8"/>
  <text x="650" y="594" text-anchor="middle" font-size="11" font-weight="600" fill="#fde68a">FastAPI</text>
  <text x="650" y="610" text-anchor="middle" font-size="10" fill="#fbbf24">POST /predict</text>
  <text x="650" y="625" text-anchor="middle" font-size="10" fill="#fbbf24">GET /health · /model_info</text>
  <text x="650" y="640" text-anchor="middle" font-size="10" fill="#fbbf24">Render (deployed)</text>

  <rect x="743" y="572" width="158" height="88" rx="6" fill="#451a00" stroke="#f59e0b" stroke-width="0.8"/>
  <text x="822" y="594" text-anchor="middle" font-size="11" font-weight="600" fill="#fde68a">Customer Simulator</text>
  <text x="822" y="610" text-anchor="middle" font-size="10" fill="#fbbf24">5 scenarios</text>
  <text x="822" y="625" text-anchor="middle" font-size="10" fill="#fbbf24">high/low/new/senior</text>
  <text x="822" y="640" text-anchor="middle" font-size="10" fill="#fbbf24">random · 300ms delay</text>

  <rect x="915" y="572" width="161" height="88" rx="6" fill="#3d1500" stroke="#fbbf24" stroke-width="1"/>
  <text x="995" y="594" text-anchor="middle" font-size="11" font-weight="600" fill="#fde68a">API Response</text>
  <text x="995" y="610" text-anchor="middle" font-size="10" fill="#fbbf24">churn_probability</text>
  <text x="995" y="625" text-anchor="middle" font-size="10" fill="#fbbf24">churn_risk_band</text>
  <text x="995" y="640" text-anchor="middle" font-size="10" fill="#fbbf24">action + rule_triggered</text>

  <line x1="186" y1="616" x2="198" y2="616" stroke="#f59e0b" stroke-width="1.2" marker-end="url(#arr3)"/>
  <line x1="358" y1="616" x2="370" y2="616" stroke="#f59e0b" stroke-width="1.2" marker-end="url(#arr3)"/>
  <line x1="557" y1="616" x2="569" y2="616" stroke="#f59e0b" stroke-width="1.2" marker-end="url(#arr3)"/>
  <line x1="729" y1="616" x2="741" y2="616" stroke="#f59e0b" stroke-width="1.2" marker-end="url(#arr3)"/>
  <line x1="901" y1="616" x2="913" y2="616" stroke="#f59e0b" stroke-width="1.2" marker-end="url(#arr3)"/>

  <!-- LAYER 5 — MONITORING (red) -->
  <rect x="10" y="694" width="1080" height="220" rx="8" fill="#2d0a0a" opacity="0.96"/>
  <text x="18" y="710" font-size="10" font-weight="700" fill="#fca5a5" letter-spacing="1.5">MONITORING LAYER — STREAMLIT DASHBOARD</text>
  <text x="16" y="808" font-size="9" font-weight="600" fill="#ef4444" transform="rotate(-90,16,808)" text-anchor="middle">MONITORING</text>

  <rect x="28" y="718" width="168" height="148" rx="6" fill="#5a0a0a" stroke="#ef4444" stroke-width="0.8"/>
  <text x="112" y="738" text-anchor="middle" font-size="11" font-weight="600" fill="#fecaca">Real-Time Alerts</text>
  <text x="112" y="755" text-anchor="middle" font-size="10" fill="#fca5a5">Churn prob &gt; 35%</text>
  <text x="112" y="771" text-anchor="middle" font-size="10" fill="#fca5a5">URGENT rate &gt; 20%</text>
  <text x="112" y="787" text-anchor="middle" font-size="10" fill="#fca5a5">PSI critical drift</text>
  <text x="112" y="803" text-anchor="middle" font-size="10" fill="#fca5a5">OUTREACH queue &gt; 40%</text>
  <text x="112" y="819" text-anchor="middle" font-size="9" fill="#f87171">escalate to retention team</text>

  <rect x="212" y="718" width="168" height="148" rx="6" fill="#5a0a0a" stroke="#ef4444" stroke-width="0.8"/>
  <text x="296" y="738" text-anchor="middle" font-size="11" font-weight="600" fill="#fecaca">Champion History</text>
  <text x="296" y="755" text-anchor="middle" font-size="10" fill="#fca5a5">Latest challenger</text>
  <text x="296" y="771" text-anchor="middle" font-size="10" fill="#fca5a5">4-gate status visual</text>
  <text x="296" y="787" text-anchor="middle" font-size="10" fill="#fca5a5">✅/❌ per gate metric</text>
  <text x="296" y="803" text-anchor="middle" font-size="10" fill="#fca5a5">Full history table</text>
  <text x="296" y="819" text-anchor="middle" font-size="9" fill="#f87171">F1 · AUC · Recall · Gap</text>

  <rect x="396" y="718" width="168" height="148" rx="6" fill="#5a0a0a" stroke="#ef4444" stroke-width="0.8"/>
  <text x="480" y="738" text-anchor="middle" font-size="11" font-weight="600" fill="#fecaca">KPI Metrics</text>
  <text x="480" y="755" text-anchor="middle" font-size="10" fill="#fca5a5">Actual churn rate 26.5%</text>
  <text x="480" y="771" text-anchor="middle" font-size="10" fill="#fca5a5">RETAIN rate 43.1%</text>
  <text x="480" y="787" text-anchor="middle" font-size="10" fill="#fca5a5">URGENT rate 32.6%</text>
  <text x="480" y="803" text-anchor="middle" font-size="10" fill="#fca5a5">Prob distribution chart</text>
  <text x="480" y="819" text-anchor="middle" font-size="10" fill="#fca5a5">Action distribution bar</text>

  <rect x="580" y="718" width="168" height="148" rx="6" fill="#5a0a0a" stroke="#ef4444" stroke-width="0.8"/>
  <text x="664" y="738" text-anchor="middle" font-size="11" font-weight="600" fill="#fecaca">Revenue Impact Panel</text>
  <text x="664" y="755" text-anchor="middle" font-size="10" fill="#fca5a5">Missed revenue (FN)</text>
  <text x="664" y="771" text-anchor="middle" font-size="10" fill="#fca5a5">Revenue saved (TP)</text>
  <text x="664" y="787" text-anchor="middle" font-size="10" fill="#fca5a5">Retention ROI: 1.05x</text>
  <text x="664" y="803" text-anchor="middle" font-size="10" fill="#fca5a5">Campaign waste (FP)</text>
  <text x="664" y="819" text-anchor="middle" font-size="9" fill="#f87171">₹4,97,012 saved · NEW</text>

  <rect x="764" y="718" width="168" height="148" rx="6" fill="#5a0a0a" stroke="#ef4444" stroke-width="0.8"/>
  <text x="848" y="738" text-anchor="middle" font-size="11" font-weight="600" fill="#fecaca">PSI Drift Report</text>
  <text x="848" y="755" text-anchor="middle" font-size="10" fill="#fca5a5">Per-feature PSI bar chart</text>
  <text x="848" y="771" text-anchor="middle" font-size="10" fill="#fca5a5">🟢 OK / 🟡 MODERATE</text>
  <text x="848" y="787" text-anchor="middle" font-size="10" fill="#fca5a5">🔴 CRITICAL thresholds</text>
  <text x="848" y="803" text-anchor="middle" font-size="10" fill="#fca5a5">PSI 0.10 / 0.20 gates</text>
  <text x="848" y="819" text-anchor="middle" font-size="9" fill="#f87171">Prediction logs CSV</text>

  <rect x="948" y="718" width="128" height="68" rx="6" fill="#450a0a" stroke="#dc2626" stroke-width="0.8"/>
  <text x="1012" y="738" text-anchor="middle" font-size="11" font-weight="600" fill="#fecaca">Render</text>
  <text x="1012" y="755" text-anchor="middle" font-size="10" fill="#fca5a5">FastAPI · Auto-deploy</text>
  <text x="1012" y="771" text-anchor="middle" font-size="10" fill="#fca5a5">Docker-ready</text>

  <rect x="948" y="798" width="128" height="68" rx="6" fill="#450a0a" stroke="#dc2626" stroke-width="0.8"/>
  <text x="1012" y="818" text-anchor="middle" font-size="11" font-weight="600" fill="#fecaca">Streamlit Cloud</text>
  <text x="1012" y="835" text-anchor="middle" font-size="10" fill="#fca5a5">Dashboard deploy</text>
  <text x="1012" y="851" text-anchor="middle" font-size="10" fill="#fca5a5">Prediction logs CSV</text>

  <!-- ARROW MARKERS -->
  <defs>
    <marker id="arr" viewBox="0 0 10 10" refX="8" refY="5" markerWidth="5" markerHeight="5" orient="auto">
      <path d="M2 2L8 5L2 8" fill="none" stroke="#4a7fd4" stroke-width="1.5"/>
    </marker>
    <marker id="arr2" viewBox="0 0 10 10" refX="8" refY="5" markerWidth="5" markerHeight="5" orient="auto">
      <path d="M2 2L8 5L2 8" fill="none" stroke="#8b5cf6" stroke-width="1.5"/>
    </marker>
    <marker id="arr3" viewBox="0 0 10 10" refX="8" refY="5" markerWidth="5" markerHeight="5" orient="auto">
      <path d="M2 2L8 5L2 8" fill="none" stroke="#f59e0b" stroke-width="1.5"/>
    </marker>
  </defs>

  <!-- layer connector arrows -->
  <line x1="550" y1="150" x2="550" y2="166" stroke="#6b7280" stroke-width="1.5" marker-end="url(#arr)"/>
  <line x1="550" y1="364" x2="550" y2="380" stroke="#6b7280" stroke-width="1.5" marker-end="url(#arr)"/>
  <line x1="550" y1="530" x2="550" y2="546" stroke="#6b7280" stroke-width="1.5" marker-end="url(#arr)"/>
  <line x1="550" y1="676" x2="550" y2="692" stroke="#6b7280" stroke-width="1.5" marker-end="url(#arr)"/>

</svg>
